name Walk5.mot
datacolumns 19
datarows 20
range 0.63500000 0.73000000
endheader

                time	   L_ground_force_vx	   L_ground_force_vy	   L_ground_force_vz	   L_ground_force_px	   L_ground_force_py	   L_ground_force_pz	   R_ground_force_vx	   R_ground_force_vy	   R_ground_force_vz	   R_ground_force_px	   R_ground_force_py	   R_ground_force_pz	   L_ground_torque_x	   L_ground_torque_y	   L_ground_torque_z	   R_ground_torque_x	   R_ground_torque_y	   R_ground_torque_z	
          0.63500000	         -3.61147871	         91.79057701	          1.06883656	         -0.08695557	          0.00000000	         -0.00678837	         -0.00000000	          0.00000000	          0.00000000	          0.00000000	          0.00000000	          0.00000000	          0.00000000	          0.02395541	          0.00000000	          0.00000000	         -0.00000000	          0.00000000	
          0.64000000	         -8.09000490	        130.88887952	          1.32999987	         -0.18781089	          0.00000000	         -0.01461415	         -0.00000000	          0.00000000	          0.00000000	          0.00000000	          0.00000000	          0.00000000	          0.00000000	          0.04727832	          0.00000000	          0.00000000	          0.00000000	          0.00000000	
          0.64500000	        -13.40336815	        172.16999021	          1.35670135	         -0.27668563	          0.00000000	         -0.02153347	         -0.00000000	          0.00000000	          0.00000000	         -0.00000000	          0.00000000	         -0.00000000	          0.00000000	          0.07457827	          0.00000000	          0.00000000	          0.00000000	          0.00000000	
          0.65000000	        -19.61132477	        213.78521741	          1.14538058	         -0.35068303	          0.00000000	         -0.02733310	         -0.00000000	          0.00000000	          0.00000000	         -0.00000000	          0.00000000	         -0.00000000	          0.00000000	          0.10643678	          0.00000000	          0.00000000	          0.00000000	          0.00000000	
          0.65500000	        -26.72493327	        254.27317079	          0.80572083	         -0.40909762	          0.00000000	         -0.03197864	         -0.00000000	         -0.00000000	          0.00000000	         -0.00000000	          0.00000000	         -0.00000000	          0.00000000	          0.14404047	          0.00000000	          0.00000000	          0.00000000	          0.00000000	
          0.66000000	        -34.63972849	        292.58770462	          0.52493440	         -0.45269130	          0.00000000	         -0.03555006	         -0.00000000	         -0.00000000	         -0.00000000	         -0.00000000	          0.00000000	         -0.00000000	          0.00000000	          0.18784833	          0.00000000	          0.00000000	          0.00000000	          0.00000000	
          0.66500000	        -43.13835999	        328.06899556	          0.49700676	         -0.48310802	          0.00000000	         -0.03819227	         -0.00000000	         -0.00000001	         -0.00000000	         -0.00000000	          0.00000000	         -0.00000000	          0.00000000	          0.23640513	          0.00000000	          0.00000000	          0.00000000	          0.00000000	
          0.67000000	        -51.96767595	        360.47411567	          0.87545045	         -0.50242526	          0.00000000	         -0.04007852	          0.00000000	         -0.00000001	         -0.00000000	         -0.00000000	          0.00000000	         -0.00000000	          0.00000000	          0.28688616	          0.00000000	          0.00000000	          0.00000000	          0.00000000	
          0.67500000	        -60.95345526	        389.93027617	          1.75347362	         -0.51283989	          0.00000000	         -0.04138011	          0.00000000	         -0.00000001	         -0.00000000	         -0.00000000	          0.00000000	         -0.00000000	          0.00000000	          0.33693669	          0.00000000	          0.00000000	          0.00000000	          0.00000000	
          0.68000000	        -70.05338316	        416.80765318	          3.15779566	         -0.51645738	          0.00000000	         -0.04224727	          0.00000000	         -0.00000002	         -0.00000000	         -0.00000000	          0.00000000	         -0.00000000	          0.00000000	          0.38643837	          0.00000000	          0.00000000	          0.00000000	          0.00000000	
          0.68500000	        -79.28872773	        441.56917026	          5.03775588	         -0.51517068	          0.00000000	         -0.04280149	          0.00000000	         -0.00000003	         -0.00000000	         -0.00000000	          0.00000000	         -0.00000000	          0.00000000	          0.43761757	          0.00000000	          0.00000000	          0.00000000	          0.00000000	
          0.69000000	        -88.62448148	        464.67386796	          7.26363946	         -0.51059414	          0.00000000	         -0.04313699	          0.00000000	         -0.00000004	         -0.00000000	         -0.00000000	          0.00000000	         -0.00000000	          0.00000000	          0.49509094	          0.00000000	          0.00000000	          0.00000000	          0.00000000	
          0.69500000	        -97.91327452	        486.53646433	          9.67585979	         -0.50403833	          0.00000000	         -0.04332467	          0.00000000	         -0.00000005	         -0.00000000	         -0.00000000	          0.00000000	         -0.00000000	          0.00000000	          0.56515236	          0.00000000	          0.00000000	          0.00000000	          0.00000000	
          0.70000000	       -106.92965735	        507.50436557	         12.14280459	         -0.49652517	          0.00000000	         -0.04341532	          0.00000001	         -0.00000005	         -0.00000000	         -0.00000000	          0.00000000	         -0.00000000	          0.00000000	          0.65355685	          0.00000000	          0.00000000	          0.00000000	          0.00000000	
          0.70500000	       -115.42411916	        527.81834820	         14.57244771	         -0.48881510	          0.00000000	         -0.04344410	          0.00000001	         -0.00000006	         -0.00000000	         -0.00000000	          0.00000000	         -0.00000000	          0.00000000	          0.76427034	          0.00000000	          0.00000000	          0.00000000	          0.00000000	
          0.71000000	       -123.15415477	        547.57498810	         16.91609548	         -0.48144058	          0.00000000	         -0.04343520	          0.00000001	         -0.00000006	         -0.00000000	         -0.00000000	          0.00000000	         -0.00000000	          0.00000000	          0.89739750	          0.00000000	          0.00000000	         -0.00000000	          0.00000000	
          0.71500000	       -129.90658853	        566.77200687	         19.17278016	         -0.47474327	          0.00000000	         -0.04340733	          0.00000001	         -0.00000005	         -0.00000000	         -0.00000000	          0.00000000	          0.00000000	          0.00000000	          1.04923856	          0.00000000	          0.00000000	         -0.00000000	          0.00000000	
          0.72000000	       -135.52017831	        585.38891542	         21.37331953	         -0.46891017	          0.00000000	         -0.04337457	          0.00000001	         -0.00000003	         -0.00000000	          0.00000000	          0.00000000	          0.00000000	          0.00000000	          1.21525179	          0.00000000	          0.00000000	         -0.00000000	          0.00000000	
          0.72500000	       -139.89419851	        603.41781718	         23.55223293	         -0.46401090	          0.00000000	         -0.04334651	          0.00000001	         -0.00000000	         -0.00000000	          0.00000000	          0.00000000	          0.00000000	          0.00000000	          1.39107952	          0.00000000	          0.00000000	         -0.00000000	          0.00000000	
          0.73000000	       -142.98047240	        620.85148234	         25.73057267	         -0.46003130	          0.00000000	         -0.04332887	          0.00000001	          0.00000004	          0.00000000	          0.00000000	          0.00000000	          0.00000000	          0.00000000	          1.57317151	          0.00000000	          0.00000000	         -0.00000000	          0.00000000	
